<mxfile host="Electron" modified="2023-04-23T12:10:21.655Z" agent="Mozilla/5.0 (Macintosh; Intel Mac OS X 10_15_7) AppleWebKit/537.36 (KHTML, like Gecko) draw.io/21.2.1 Chrome/112.0.5615.87 Electron/24.1.2 Safari/537.36" etag="Ta5FzlwmS_hRTgsn6uGw" version="21.2.1" type="device">
  <diagram name="Страница 1" id="6tMGNJNM4NKZPwXtHnVI">
    <mxGraphModel dx="626" dy="850" grid="1" gridSize="10" guides="1" tooltips="1" connect="1" arrows="1" fold="1" page="1" pageScale="1" pageWidth="827" pageHeight="1169" math="0" shadow="0">
      <root>
        <mxCell id="0" />
        <mxCell id="1" parent="0" />
        <mxCell id="Q8PbNGjHBaHUHqc-n6fm-4" style="edgeStyle=orthogonalEdgeStyle;rounded=0;orthogonalLoop=1;jettySize=auto;html=1;" edge="1" parent="1" source="Q8PbNGjHBaHUHqc-n6fm-1" target="Q8PbNGjHBaHUHqc-n6fm-2">
          <mxGeometry relative="1" as="geometry" />
        </mxCell>
        <mxCell id="Q8PbNGjHBaHUHqc-n6fm-1" value="Вход" style="rounded=1;whiteSpace=wrap;html=1;arcSize=50;" vertex="1" parent="1">
          <mxGeometry x="100" y="30" width="200" height="30" as="geometry" />
        </mxCell>
        <mxCell id="Q8PbNGjHBaHUHqc-n6fm-5" style="edgeStyle=orthogonalEdgeStyle;rounded=0;orthogonalLoop=1;jettySize=auto;html=1;entryX=0.5;entryY=0;entryDx=0;entryDy=0;" edge="1" parent="1" source="Q8PbNGjHBaHUHqc-n6fm-2">
          <mxGeometry relative="1" as="geometry">
            <mxPoint x="200" y="200" as="targetPoint" />
          </mxGeometry>
        </mxCell>
        <mxCell id="Q8PbNGjHBaHUHqc-n6fm-2" value="Задание таблицы table" style="rounded=0;whiteSpace=wrap;html=1;" vertex="1" parent="1">
          <mxGeometry x="100" y="100" width="200" height="60" as="geometry" />
        </mxCell>
        <mxCell id="Q8PbNGjHBaHUHqc-n6fm-9" style="edgeStyle=orthogonalEdgeStyle;rounded=0;orthogonalLoop=1;jettySize=auto;html=1;endArrow=none;endFill=0;" edge="1" parent="1" source="Q8PbNGjHBaHUHqc-n6fm-6">
          <mxGeometry relative="1" as="geometry">
            <mxPoint x="200" y="80" as="targetPoint" />
          </mxGeometry>
        </mxCell>
        <mxCell id="Q8PbNGjHBaHUHqc-n6fm-6" value="Словарь (data)" style="strokeWidth=1;html=1;shape=mxgraph.flowchart.annotation_2;align=left;labelPosition=right;pointerEvents=1;" vertex="1" parent="1">
          <mxGeometry x="340" y="50" width="50" height="60" as="geometry" />
        </mxCell>
        <mxCell id="Q8PbNGjHBaHUHqc-n6fm-37" style="edgeStyle=orthogonalEdgeStyle;rounded=0;orthogonalLoop=1;jettySize=auto;html=1;entryX=0.5;entryY=0;entryDx=0;entryDy=0;exitX=1;exitY=0.5;exitDx=0;exitDy=0;" edge="1" parent="1" source="Q8PbNGjHBaHUHqc-n6fm-47" target="Q8PbNGjHBaHUHqc-n6fm-35">
          <mxGeometry relative="1" as="geometry">
            <mxPoint x="200.0000000000001" y="930.0000000000002" as="sourcePoint" />
            <Array as="points">
              <mxPoint x="340" y="630" />
              <mxPoint x="340" y="920" />
              <mxPoint x="200" y="920" />
            </Array>
          </mxGeometry>
        </mxCell>
        <mxCell id="Q8PbNGjHBaHUHqc-n6fm-35" value="Выход" style="rounded=1;whiteSpace=wrap;html=1;arcSize=50;" vertex="1" parent="1">
          <mxGeometry x="100" y="960" width="200" height="30" as="geometry" />
        </mxCell>
        <mxCell id="Q8PbNGjHBaHUHqc-n6fm-38" style="edgeStyle=orthogonalEdgeStyle;rounded=0;orthogonalLoop=1;jettySize=auto;html=1;endArrow=none;endFill=0;" edge="1" parent="1" source="Q8PbNGjHBaHUHqc-n6fm-36">
          <mxGeometry relative="1" as="geometry">
            <mxPoint x="200" y="940" as="targetPoint" />
            <Array as="points">
              <mxPoint x="200" y="940" />
            </Array>
          </mxGeometry>
        </mxCell>
        <mxCell id="Q8PbNGjHBaHUHqc-n6fm-36" value="Итоговая таблица&lt;br&gt;результатов - table" style="strokeWidth=1;html=1;shape=mxgraph.flowchart.annotation_2;align=left;labelPosition=right;pointerEvents=1;" vertex="1" parent="1">
          <mxGeometry x="330" y="910" width="50" height="60" as="geometry" />
        </mxCell>
        <mxCell id="Q8PbNGjHBaHUHqc-n6fm-44" style="edgeStyle=orthogonalEdgeStyle;rounded=0;orthogonalLoop=1;jettySize=auto;html=1;entryX=0.5;entryY=0;entryDx=0;entryDy=0;" edge="1" parent="1" source="Q8PbNGjHBaHUHqc-n6fm-41" target="Q8PbNGjHBaHUHqc-n6fm-42">
          <mxGeometry relative="1" as="geometry" />
        </mxCell>
        <mxCell id="Q8PbNGjHBaHUHqc-n6fm-41" value="Задание заголовков таблицы в массиве headers" style="rounded=0;whiteSpace=wrap;html=1;" vertex="1" parent="1">
          <mxGeometry x="100" y="200" width="200" height="60" as="geometry" />
        </mxCell>
        <mxCell id="Q8PbNGjHBaHUHqc-n6fm-45" style="edgeStyle=orthogonalEdgeStyle;rounded=0;orthogonalLoop=1;jettySize=auto;html=1;entryX=0.5;entryY=0;entryDx=0;entryDy=0;" edge="1" parent="1" source="Q8PbNGjHBaHUHqc-n6fm-42" target="Q8PbNGjHBaHUHqc-n6fm-43">
          <mxGeometry relative="1" as="geometry" />
        </mxCell>
        <mxCell id="Q8PbNGjHBaHUHqc-n6fm-42" value="Добавление название команд в массив teams" style="rounded=0;whiteSpace=wrap;html=1;" vertex="1" parent="1">
          <mxGeometry x="100" y="300" width="200" height="60" as="geometry" />
        </mxCell>
        <mxCell id="Q8PbNGjHBaHUHqc-n6fm-53" style="edgeStyle=orthogonalEdgeStyle;rounded=0;orthogonalLoop=1;jettySize=auto;html=1;entryX=0.5;entryY=0;entryDx=0;entryDy=0;" edge="1" parent="1" source="Q8PbNGjHBaHUHqc-n6fm-43" target="Q8PbNGjHBaHUHqc-n6fm-46">
          <mxGeometry relative="1" as="geometry" />
        </mxCell>
        <mxCell id="Q8PbNGjHBaHUHqc-n6fm-43" value="Добавление данных о матчах в массив matches" style="rounded=0;whiteSpace=wrap;html=1;" vertex="1" parent="1">
          <mxGeometry x="100" y="400" width="200" height="60" as="geometry" />
        </mxCell>
        <mxCell id="Q8PbNGjHBaHUHqc-n6fm-54" style="edgeStyle=orthogonalEdgeStyle;rounded=0;orthogonalLoop=1;jettySize=auto;html=1;" edge="1" parent="1" source="Q8PbNGjHBaHUHqc-n6fm-46" target="Q8PbNGjHBaHUHqc-n6fm-47">
          <mxGeometry relative="1" as="geometry" />
        </mxCell>
        <mxCell id="Q8PbNGjHBaHUHqc-n6fm-46" value="Добавление в таблицу колонки &quot;Название команды&quot; и данные массива teams" style="rounded=0;whiteSpace=wrap;html=1;" vertex="1" parent="1">
          <mxGeometry x="100" y="500" width="200" height="60" as="geometry" />
        </mxCell>
        <mxCell id="Q8PbNGjHBaHUHqc-n6fm-50" style="edgeStyle=orthogonalEdgeStyle;rounded=0;orthogonalLoop=1;jettySize=auto;html=1;entryX=0.5;entryY=0;entryDx=0;entryDy=0;" edge="1" parent="1" source="Q8PbNGjHBaHUHqc-n6fm-47" target="Q8PbNGjHBaHUHqc-n6fm-48">
          <mxGeometry relative="1" as="geometry" />
        </mxCell>
        <mxCell id="Q8PbNGjHBaHUHqc-n6fm-47" value="Цикл i (0, 7, 1)" style="shape=hexagon;perimeter=hexagonPerimeter2;whiteSpace=wrap;html=1;fixedSize=1;" vertex="1" parent="1">
          <mxGeometry x="100" y="600" width="200" height="60" as="geometry" />
        </mxCell>
        <mxCell id="Q8PbNGjHBaHUHqc-n6fm-51" style="edgeStyle=orthogonalEdgeStyle;rounded=0;orthogonalLoop=1;jettySize=auto;html=1;entryX=0.5;entryY=0;entryDx=0;entryDy=0;" edge="1" parent="1" source="Q8PbNGjHBaHUHqc-n6fm-48" target="Q8PbNGjHBaHUHqc-n6fm-49">
          <mxGeometry relative="1" as="geometry" />
        </mxCell>
        <mxCell id="Q8PbNGjHBaHUHqc-n6fm-48" value="Заполнение массива mass результатами матча № i + 1" style="rounded=0;whiteSpace=wrap;html=1;" vertex="1" parent="1">
          <mxGeometry x="100" y="700" width="200" height="60" as="geometry" />
        </mxCell>
        <mxCell id="Q8PbNGjHBaHUHqc-n6fm-52" style="edgeStyle=orthogonalEdgeStyle;rounded=0;orthogonalLoop=1;jettySize=auto;html=1;entryX=0;entryY=0.5;entryDx=0;entryDy=0;" edge="1" parent="1" source="Q8PbNGjHBaHUHqc-n6fm-49" target="Q8PbNGjHBaHUHqc-n6fm-47">
          <mxGeometry relative="1" as="geometry">
            <Array as="points">
              <mxPoint x="200" y="880" />
              <mxPoint x="60" y="880" />
              <mxPoint x="60" y="630" />
            </Array>
          </mxGeometry>
        </mxCell>
        <mxCell id="Q8PbNGjHBaHUHqc-n6fm-49" value="Добавление в таблицу колонки с заголовками из массива headers и данные массива mass" style="rounded=0;whiteSpace=wrap;html=1;" vertex="1" parent="1">
          <mxGeometry x="100" y="800" width="200" height="60" as="geometry" />
        </mxCell>
      </root>
    </mxGraphModel>
  </diagram>
</mxfile>
